<svg xmlns="http://www.w3.org/2000/svg" viewBox="0 0 1077.66 1077.89"><defs><style>.cls-1{fill:#309896;}.cls-2{fill:none;stroke:#309896;stroke-miterlimit:10;stroke-width:10px;}</style></defs><g id="Layer_2" data-name="Layer 2"><g id="Layer_1-2" data-name="Layer 1"><path class="cls-1" d="M632.55,587.43c-54.82,57.62-132.58,55.82-188.77-.58-45.13-45.3-65-102.22-72.87-164.18-1.82-14.3-4.12-28.63-3.29-40.07.11-86.93,56-160.19,133.7-178.23,88.79-20.63,181.59,34.31,201.33,126.91C723,426.67,701,515.44,632.55,587.43Z"/><path class="cls-1" d="M1077.37,496.28l.29,82.05c-1.73,13.2-3,26.49-5.12,39.63-23,141.91-89.75,258.7-203.62,346.71-121.56,94-259.92,129.1-411.56,106.68-129.41-19.13-238.24-79.12-323.82-178C25.87,768.85-16.79,623.6,5.92,460.71,23.33,335.81,80,230.22,172.28,144.07,246.63,74.64,334,30.45,433.62,10c19.89-4.09,40.07-5.92,60.1-8.84A107,107,0,0,1,509.2,0h46c9.59,0,19.14.77,28.7,1.55h.07c35.41,2.68,70.31,8.53,104.14,19.23Q982.76,114,1063.3,412.57C1070.72,440,1073.31,468.27,1077.37,496.28ZM571.6,760.4c3.11-5.14,6.38-10.19,9.44-15.35a620.24,620.24,0,0,0,55.4-122.38c5.24-15.87,14.41-12.26,37.47.73,16.33-1.59,94.63,25.28,113.09,33,34.94,14.63,55.9,40.32,66.22,76.47a757.6,757.6,0,0,1,23.35,115.25c.8,6.5-1.84,16.93,5.12,18.73,6,1.57,10.61-7.82,15-13,96.63-113.25,135-243.73,112.76-390.92C975.76,239.87,781.21,69,556.64,62.86c-133.2-3.62-249.37,38.8-345.46,130.57-104,99.3-153,222.34-147.71,366.52,3.24,88.47,30.46,169.11,78.76,242.9a462.12,462.12,0,0,0,46.12,58.61c1.54,1.68,3.12,4.7,5.83,3.28,1.32-.69,1.74-3.55,2.13-5.51.68-3.44,1-6.93,1.5-10.4,4.24-31.26,10.33-62.17,16.13-93.17,10.82-57.76,44.22-93.58,99.69-110.41,13.07-4,25.75-9.19,39.18-12,7.58-1.58,50.12-17.32,72.06-20.82,6.76-1.07,10.33.52,12.19,7.57,12.44,46.86,35,89.25,58.83,131,1.37,2.4,1.86,6.17,6.46,6.29,2.38-12.84,4.25-25.68,7.22-38.25,3.45-14.64,5.71-28.89-2.29-42.85-3.58-6.26.42-12.29,13.66-15.13,9.16-16.69,16.73-18.9,24.28-11.9,5.4,5,10.56,10.38,16.5,14.65,6.94,5,7.19,10.52,3.45,17.22-2.75,4.94-5.24,9.85-4.2,15.88C564.61,718.06,568.06,739.24,571.6,760.4Z"/><path class="cls-2" d="M166,281.26,221.74,218l32.93,25.88,35.61-15.51c.06-14.51.12-28.58.19-44.24l89.26-1.29c1.11,9.85,2.66,23.75,4.4,39.19l36.2,11.41,29.5-29.35L516,262.34c-8.14,10.71-16,21-25.19,33.11l15.25,34.21L549,328.8c2.13,30.55,4.13,59.35,6.2,89.13l-41.72,5.13c-4.56,13-8.69,24.72-13.41,38.17l31.76,27.95-58.76,66.75-34.83-26.38-32.54,16.31c-.45,14.41-.88,28-1.39,44.33l-88.66,1.63c-1.24-10.91-2.76-24.37-4.5-39.74l-35.56-12-30.29,30L178.93,511.7l25.69-33.07c-5.23-11.47-10.6-23.22-16-35.09l-42.27,1.18c-2.42-30.43-4.71-59.14-7.1-89.15l42.45-5.41,12.38-34.46C187,302.58,170.59,297.9,166,281.26Zm237.52,157.2c29-31.58,27.26-79.73-3.85-108.17s-80.08-26.63-109,3.85C263.57,362.74,265.28,415,294.24,442,326.64,472.12,374.07,470.6,403.56,438.46Z"/><path class="cls-2" d="M554.62,193l24,2.68,11.95-13.58-8.17-25.7,44.29-25.51L641,152.35l19.52-2.58,10.31-23.57,49.95,12.43c-1.32,9-2.44,16.63-3.7,25.21L731,176.08l25.07-9c8.56,14.85,16.91,29.34,25.62,44.47l-21.14,15.22c1,6.42,2,13.05,3,19.95L787,255.87c-4.24,16.73-8.36,33-12.77,50.46l-24.62-3.76c-18.91,10.3-8.12,24.09-5.16,37.36-11.71,12.47-27,18.73-43.18,26.67l-16.07-19.86-17.67,2.48-11.25,23.42L607.12,360c1.31-10.2,2.33-18,3.53-27.3l-16.44-10.39-22.87,9.66-25.61-44.49L566.36,272c-.66-6.17-1.37-12.87-2.15-20.16L542,243C541.12,225.27,548.36,209.94,554.62,193Zm143.63,83.92c11.91-21.3,14.19-43.72-6.74-61.13-20.77-17.26-44.52-14.31-61.11,6.05s-14.77,43.79,6.34,61C657.26,299.64,678.17,294.92,698.25,276.91Z"/><path class="cls-2" d="M916.24,522.66,873,541.8,859.55,522l-18.14,1-10.27,19.14c-16.42-2.23-31-7.93-45.76-16.21,1.24-7.19,2.39-13.81,3.78-21.8l-12.74-12.83-21.08,5.47c-9.48-12.79-16.78-26.43-20.23-43.6l20.67-14c-.17-3.58-.44-9.64-.69-15l-20.26-11.63c-.13-17.08,8.78-30.53,15-45.89l22.06,4.38,12.8-12.71c-2-7.7-3.8-14.76-6.17-24l43-19.39c4.94,7.13,9.07,13.08,13.15,19,6.19,3.46,12.19,3,19-.25l10.39-17.64c16.92.51,30.61,8.48,45.49,16.26-1.47,7.72-2.84,14.87-4.34,22.73l10.83,10.9,25.27-5.33,19.92,42.82-19.66,13.58c-.21,4.85-.48,10.92-.76,17.28l21.38,12.24-16.15,44.43-24.58-4.22-11.64,11.56C911.75,505.36,913.59,512.44,916.24,522.66Zm-97.33-65.12c20.88,16.62,41.48,16.84,58.21-1.33s16-40.52-2.07-57.06c-17.82-16.3-39.3-16-56.85,2.47C800.29,420.49,804.11,439.9,818.91,457.54Z"/></g></g></svg>