<svg xmlns="http://www.w3.org/2000/svg" viewBox="0 0 1124.99 1124.99"><defs><style>.cls-1{fill:#28bca3;}.cls-2{fill:#13958d;}.cls-3{fill:#fff;}.cls-4{fill:#bc0000;}</style></defs><g id="Layer_2" data-name="Layer 2"><g id="Layer_1-2" data-name="Layer 1"><path class="cls-1" d="M387.78,613.08c-.52-8.51,5.94-18.28,6.75-20.12s5.69-9,10.6-17.93,5-12.53,5-12.53.06,3.56,5,12.53,9.8,16.1,10.6,17.93,7.27,11.61,6.75,20.12c0,0-.78,21.6-22.33,21.6S387.78,613.08,387.78,613.08Z"/><path class="cls-2" d="M636.09,684.79c-.81-1.83-5.69-9-10.61-17.93s-5-12.53-5-12.53-.07,3.56-5,12.53-9.81,16.1-10.61,17.93-7.26,11.61-6.75,20.12c0,0,.78,21.6,22.34,21.6s22.34-21.6,22.34-21.6C643.35,696.4,636.89,686.63,636.09,684.79ZM847.49,593c-.8-1.83-5.69-9-10.61-17.93s-5-12.53-5-12.53-.06,3.56-5,12.53-9.8,16.1-10.6,17.93-7.27,11.61-6.75,20.12c0,0,.78,21.6,22.33,21.6s22.34-21.6,22.34-21.6C854.75,604.57,848.29,594.8,847.49,593Zm0,0c-.8-1.83-5.69-9-10.61-17.93s-5-12.53-5-12.53-.06,3.56-5,12.53-9.8,16.1-10.6,17.93-7.27,11.61-6.75,20.12c0,0,.78,21.6,22.33,21.6s22.34-21.6,22.34-21.6C854.75,604.57,848.29,594.8,847.49,593Zm-211.4,91.83c-.81-1.83-5.69-9-10.61-17.93s-5-12.53-5-12.53-.07,3.56-5,12.53-9.81,16.1-10.61,17.93-7.26,11.61-6.75,20.12c0,0,.78,21.6,22.34,21.6s22.34-21.6,22.34-21.6C643.35,696.4,636.89,686.63,636.09,684.79ZM562.5,0C251.84,0,0,251.84,0,562.5S251.84,1125,562.5,1125,1125,873.15,1125,562.5,873.16,0,562.5,0ZM684.35,341.76s3.13-86.58,89.55-86.58,89.55,86.58,89.55,86.58c2.06,34.14-23.84,73.31-27.06,80.66s-22.8,35.94-42.51,71.89-20,50.24-20,50.24-.25-14.29-20-50.24-39.3-64.55-42.52-71.89S682.3,375.9,684.35,341.76ZM473,430.61S476.08,344,562.5,344s89.55,86.58,89.55,86.58c2.06,34.14-23.84,73.31-27.06,80.66s-22.81,36-42.52,71.89-20,50.24-20,50.24-.26-14.29-20-50.24-39.3-64.55-42.52-71.89S470.89,464.75,473,430.61ZM262.57,341.76s3.12-86.58,89.55-86.58,89.54,86.58,89.54,86.58c2.06,34.14-23.83,73.31-27.05,80.66s-22.81,35.94-42.52,71.89-20,50.24-20,50.24-.26-14.29-20-50.24-39.29-64.55-42.52-71.89S260.51,375.9,262.57,341.76Zm89.55,511.73C193,853.49,187.19,694,187.19,694c-3.79-62.89,43.9-135,49.83-148.56,4.77-10.87,29-47,57.19-95.2,9.37,15.13,22.06,35.7,34.79,58.92,22.82,41.6,23.12,58.15,23.12,58.15s.3-16.55,23.12-58.15C388,486,400.65,465.41,410,450.28c28.19,48.15,52.42,84.32,57.19,95.19,1.15,2.62,3.86,7.43,7.46,13.95-19.81,32.36-34.89,55.67-38.69,64.34-6.52,14.87-59,94.17-54.78,163.31,0,0,1,28.26,13.58,62.09A200.37,200.37,0,0,1,352.12,853.49Zm375.31-70.61S721.67,942.34,562.5,942.34,397.57,782.88,397.57,782.88c-3.79-62.89,43.9-135,49.83-148.56,4.77-10.87,29-47,57.19-95.2,9.37,15.13,22.06,35.7,34.79,58.92,22.82,41.6,23.12,58.15,23.12,58.15s.3-16.55,23.12-58.15c12.73-23.21,25.41-43.78,34.78-58.91,28.19,48.15,52.42,84.32,57.19,95.19C683.52,647.85,731.22,720,727.43,782.88ZM938.83,694S933.07,853.49,773.9,853.49A200.33,200.33,0,0,1,730.3,849c12.48-33.74,13.5-61.89,13.5-61.89C748,717.93,695.53,638.63,689,623.76c-3.77-8.59-18.6-31.56-38.15-63.47,3.84-7,6.74-12.09,7.94-14.82,4.77-10.87,29-47,57.19-95.2,9.37,15.13,22.06,35.7,34.79,58.92,22.82,41.6,23.12,58.15,23.12,58.15s.3-16.55,23.12-58.15c12.73-23.21,25.41-43.78,34.78-58.91C860,498.43,884.22,534.6,889,545.47,894.92,559,942.62,631.14,938.83,694Zm-102-119c-4.91-9-5-12.53-5-12.53s-.06,3.56-5,12.53-9.8,16.1-10.6,17.93-7.27,11.61-6.75,20.12c0,0,.78,21.6,22.33,21.6s22.34-21.6,22.34-21.6c.51-8.51-6-18.28-6.75-20.12S841.8,584,836.88,575Zm-211.4,91.83c-4.92-9-5-12.53-5-12.53s-.07,3.56-5,12.53-9.81,16.1-10.61,17.93-7.26,11.61-6.75,20.12c0,0,.78,21.6,22.34,21.6s22.34-21.6,22.34-21.6c.51-8.51-6-18.28-6.75-20.12S630.4,675.83,625.48,666.86Zm10.61,17.93c-.81-1.83-5.69-9-10.61-17.93s-5-12.53-5-12.53-.07,3.56-5,12.53-9.81,16.1-10.61,17.93-7.26,11.61-6.75,20.12c0,0,.78,21.6,22.34,21.6s22.34-21.6,22.34-21.6C643.35,696.4,636.89,686.63,636.09,684.79Zm0,0c-.81-1.83-5.69-9-10.61-17.93s-5-12.53-5-12.53-.07,3.56-5,12.53-9.81,16.1-10.61,17.93-7.26,11.61-6.75,20.12c0,0,.78,21.6,22.34,21.6s22.34-21.6,22.34-21.6C643.35,696.4,636.89,686.63,636.09,684.79Z"/><path class="cls-3" d="M642.84,704.91s-.78,21.6-22.34,21.6-22.34-21.6-22.34-21.6c-.51-8.51,6-18.28,6.75-20.12s5.69-9,10.61-17.93,5-12.53,5-12.53.06,3.56,5,12.53,9.8,16.1,10.61,17.93S643.35,696.4,642.84,704.91Z"/><path class="cls-3" d="M432.45,613.08s-.78,21.6-22.33,21.6-22.34-21.6-22.34-21.6c-.52-8.51,5.94-18.28,6.75-20.12s5.69-9,10.6-17.93,5-12.53,5-12.53.06,3.56,5,12.53,9.8,16.1,10.6,17.93S433,604.57,432.45,613.08Z"/><path class="cls-3" d="M854.24,613.08s-.78,21.6-22.34,21.6-22.33-21.6-22.33-21.6c-.52-8.51,5.94-18.28,6.75-20.12s5.68-9,10.6-17.93,5-12.53,5-12.53.07,3.56,5,12.53,9.81,16.1,10.61,17.93S854.75,604.57,854.24,613.08Z"/><path class="cls-4" d="M642.84,704.91s-.78,21.6-22.34,21.6-22.34-21.6-22.34-21.6c-.51-8.51,6-18.28,6.75-20.12s5.69-9,10.61-17.93,5-12.53,5-12.53.06,3.56,5,12.53,9.8,16.1,10.61,17.93S643.35,696.4,642.84,704.91Z"/><path class="cls-4" d="M854.24,613.08s-.78,21.6-22.34,21.6-22.33-21.6-22.33-21.6c-.52-8.51,5.94-18.28,6.75-20.12s5.68-9,10.6-17.93,5-12.53,5-12.53.07,3.56,5,12.53,9.81,16.1,10.61,17.93S854.75,604.57,854.24,613.08Z"/><path class="cls-4" d="M432.45,613.08s-.78,21.6-22.33,21.6-22.34-21.6-22.34-21.6c-.52-8.51,5.94-18.28,6.75-20.12s5.69-9,10.6-17.93,5-12.53,5-12.53.06,3.56,5,12.53,9.8,16.1,10.6,17.93S433,604.57,432.45,613.08Z"/></g></g></svg>