<svg xmlns="http://www.w3.org/2000/svg" viewBox="0 0 1077.66 1077.89"><defs><style>.cls-1{fill:#309896;}</style></defs><g id="Layer_2" data-name="Layer 2"><g id="Layer_1-2" data-name="Layer 1"><path class="cls-1" d="M632.55,587.43c-54.82,57.62-132.59,55.82-188.77-.58-45.13-45.3-65-102.22-72.87-164.18-1.82-14.3-4.12-28.63-3.29-40.07.11-86.93,56-160.19,133.7-178.23,88.79-20.63,181.59,34.31,201.33,126.91C723,426.67,701,515.44,632.55,587.43Z"/><path class="cls-1" d="M1077.37,496.28l.29,82.05c-1.73,13.2-3,26.49-5.12,39.63-23,141.91-89.75,258.7-203.62,346.71-121.56,94-259.92,129.1-411.56,106.68-129.41-19.13-238.24-79.12-323.82-178C25.87,768.85-16.79,623.6,5.92,460.71,23.33,335.81,80,230.22,172.28,144.07,246.63,74.64,334,30.45,433.62,10c19.89-4.09,40.07-5.92,60.1-8.84A107,107,0,0,1,509.2,0h46c9.59,0,19.14.77,28.7,1.55h.07c35.41,2.68,70.31,8.53,104.14,19.23Q982.76,114,1063.3,412.57C1070.72,440,1073.31,468.27,1077.37,496.28ZM636.44,622.67c5.24-15.87,14.41-12.26,37.47.73,16.33-1.59,94.63,25.28,113.09,33,34.94,14.63,55.9,40.32,66.22,76.47a757.6,757.6,0,0,1,23.35,115.25c.8,6.5-1.84,16.93,5.12,18.73,6,1.57,10.61-7.82,15-13,96.63-113.25,135-243.73,112.76-390.92C975.76,239.87,781.21,69,556.64,62.86c-133.2-3.62-249.37,38.8-345.46,130.57-104,99.3-153,222.34-147.71,366.52,3.24,88.47,30.46,169.11,78.76,242.9a462.12,462.12,0,0,0,46.12,58.61c1.54,1.68,3.12,4.7,5.83,3.28,1.32-.69,1.74-3.55,2.13-5.51.68-3.44,1-6.93,1.5-10.4,4.24-31.26,10.33-62.17,16.13-93.17,10.82-57.76,44.22-93.58,99.69-110.41,13.07-4,25.75-9.19,39.18-12,7.58-1.58,50.12-17.32,72.06-20.82,6.76-1.07,10.33.52,12.19,7.57C449.5,666.86,622.32,665.38,636.44,622.67Z"/><path class="cls-1" d="M850.8,401.46l-3.3,1.3v9.8l3.19-1.27,3.32,1.19v-9.77Zm-3.3,43.47v21.33l6.51-2.63V442.4Zm131.11,7,.18-.47-36.88-14.41-6.52-2.54v9.15l6.52,2.65L967,456.52l-116.2,45.85L804,483.91l6.33-2.57,8.92-3.61-5.86-2.37-17.13-6.44L791,466.86l-8.87,3.44-6.38,2.48L735.67,457l23.93-9.5,6.51-2.59V435l-6.51,2.57L723,452l-.42-.17v.32h0l0,.06V612.57L850.75,662.8,978.9,612.57V451.81ZM846.18,651.47l-48-19.38L774.1,623l-42.33-16.7V465.27l41.91,16.53,20.94,8.26,3.73,1.47,47.83,18.87Zm123.56-45.13L855.33,651.47V510.4l114.41-45.14Z"/><path class="cls-1" d="M941.89,347.34v-.23l-.29.12L850.7,311.3l-91,35.56.13.34-.21-.09V461.47l91.16,35.73,40.45-15.86,28.16-11,22.54-8.83V347.39l0,0Zm-91.1-29,81.81,32.49L904.09,362l-84.18-32.68Zm-48.86,18.38L884,369.94l-33.28,13.14-82.67-32.61Zm45.55,152.47L766.1,457V356.68l81.38,32.11Zm87.9-32.1-24.9,9.82-5.22,2.06-17.13,6.44-5.86,2.37L854,489.14V388.79l34-13.42,2.65-1.05,14.9-5.87,29.81-11.76Z"/><polygon class="cls-1" points="794.62 490.06 794.62 526.01 789.83 521.25 786.86 522.28 783.45 518.68 779.95 519.5 777.41 516.03 773.68 517.07 773.68 481.8 794.62 490.06"/><polygon class="cls-1" points="884.02 376.63 884.02 411.09 888.63 406.53 891.47 407.51 894.73 404.06 898.1 404.85 900.52 401.52 904.1 402.52 904.1 368.71 884.02 376.63"/><path class="cls-1" d="M350.15,439.13v-.33l-.41.17L220.59,387.92,91.25,438.44l.18.49-.3-.13V601.27L220.65,652l57.47-22.54,40-15.68,32-12.55V439.2l0-.06ZM220.72,397.85,337,444l-40.51,16L176.85,413.57ZM151.3,424l116.63,47.26L220.65,489.9,103.2,443.57ZM216,640.58,100.4,595V452.39L216,498ZM340.9,595l-35.38,13.95-7.41,2.93L273.77,621l-8.33,3.36-40.17,16.21V498L273.61,479l3.77-1.49,21.17-8.34,42.35-16.71Z"/><polygon class="cls-1" points="267.93 480.74 267.93 529.7 274.47 523.22 278.51 524.62 283.14 519.72 287.92 520.83 291.37 516.11 296.45 517.52 296.45 469.49 267.93 480.74"/></g></g></svg>