<svg xmlns="http://www.w3.org/2000/svg" viewBox="0 0 1077.66 1077.89"><defs><style>.cls-1{fill:#309896;}</style></defs><g id="Layer_2" data-name="Layer 2"><g id="Layer_1-2" data-name="Layer 1"><path class="cls-1" d="M632.56,587.43c-54.83,57.62-132.59,55.82-188.78-.58-45.12-45.3-65-102.22-72.87-164.18-1.82-14.3-4.12-28.63-3.29-40.07.11-86.93,56-160.19,133.7-178.23,88.79-20.63,181.6,34.31,201.34,126.91C723,426.67,701,515.44,632.56,587.43Z"/><path class="cls-1" d="M1077.37,496.28l.29,82.05c-1.73,13.2-3,26.49-5.12,39.63-23,141.91-89.75,258.7-203.62,346.71-121.56,94-259.92,129.1-411.56,106.68-129.41-19.13-238.24-79.12-323.82-178C25.87,768.85-16.79,623.6,5.92,460.71,23.33,335.81,80,230.22,172.28,144.07,246.63,74.64,334,30.45,433.62,10c19.89-4.09,40.07-5.92,60.1-8.84A107,107,0,0,1,509.2,0h46c9.59,0,19.14.77,28.7,1.55h.07c35.41,2.68,70.31,8.53,104.14,19.23Q982.76,114,1063.3,412.57C1070.72,440,1073.31,468.27,1077.37,496.28ZM636.44,622.67c5.24-15.87,14.41-12.26,37.47.73,16.33-1.59,19.5,3.61,20.85,11.22,4.43,24.89,2.8,49.55-2.56,74.11-1.33,6.1-4.73,8.75-11,9-39.07,1.52-62.13,23.86-75.18,58.66q-14.76,39.38-28.75,79c-5.86,16.56-10.73,33.49-10.44,51.25.37,21.9,18.88,40.28,39.45,39.88,4.63-.09,9.59-.17,11.31-5.59,1.84-5.77.77-11.28-4.27-15.14a31.32,31.32,0,0,0-8.37-4.26c-8-2.87-11.78-8.56-11.61-16.83.1-5.59.09-11.3,1.21-16.73,8.24-40.08,26.34-76.74,40.3-114.84,1.06-2.89,3.23-5.42,5.11-7.93,14.67-19.6,39.28-28,61.6-21,23.94,7.47,40.34,28.06,39.4,53.61-1.4,37.78-3.58,75.62-10.59,112.87-5.09,27.1-9,30.16-36.23,34.24-5.59.84-9.1,3.31-9.65,9.18-.51,5.35,1,9.58,6.24,12.09,17.26,8.21,41,1.54,51.17-14.68,7.21-11.48,10.61-24.35,13-37.52,6.94-37.67,6.9-76,10.57-114,3-30.74-11.27-53.26-36.56-69.57-2.35-1.52-4.67-3.12-7.12-4.48-4.51-2.52-6.27-5.81-5.2-11.24a278.31,278.31,0,0,0,4.7-71.14c-.46-7.66,2.55-9.17,9.32-7.45,19.43,5,37.84,12.55,56.3,20.28,34.94,14.63,55.9,40.32,66.22,76.47a757.6,757.6,0,0,1,23.35,115.25c.8,6.5-1.84,16.93,5.12,18.73,6,1.57,10.61-7.82,15-13,96.63-113.25,135-243.73,112.76-390.92C975.76,239.87,781.21,69,556.64,62.86c-133.2-3.62-249.37,38.8-345.46,130.57-104,99.3-153,222.34-147.71,366.52,3.24,88.47,30.46,169.11,78.76,242.9a462.12,462.12,0,0,0,46.12,58.61c1.54,1.68,3.12,4.7,5.83,3.28,1.32-.69,1.74-3.55,2.13-5.51.68-3.44,1-6.93,1.5-10.4,4.24-31.26,10.33-62.17,16.13-93.17,10.82-57.76,44.22-93.58,99.69-110.41,13.07-4,25.75-9.19,39.18-12,7.58-1.58,10.9.78,8.35,8.81-.64,2-.94,4.11-1.58,6.1-14.29,44.3-13.7,89.77-10.3,135.38,2.3,30.89,9,60.94,18.44,90.43,2.73,8.51,5.71,17.14.16,26.31-7.62,12.59-5.65,30.26,3.55,41.31,9.54,11.45,27.19,16,42.27,10.82,14.7-5,23.3-16.52,24.16-32.32,1.08-19.93-10-34.3-31.79-39.41-7.52-1.76-11-5.32-13.58-12.35-9.24-25.19-14.16-51.14-17.2-77.76a404.22,404.22,0,0,1,8.57-140.86c5.42-22.76,19.07-33.78,41-37.28,6.76-1.07,10.33.52,12.19,7.57C449.5,666.86,622.32,665.38,636.44,622.67Z"/></g></g></svg>