<svg xmlns="http://www.w3.org/2000/svg" viewBox="0 0 865.27 502"><defs><style>.cls-1{fill:#298d96;}.cls-2{fill:none;stroke:#298d96;stroke-miterlimit:10;stroke-width:6px;}</style></defs><g id="Layer_2" data-name="Layer 2"><g id="Layer_1-2" data-name="Layer 1"><path class="cls-1" d="M633.52,120.23a44.67,44.67,0,0,0-34.37-16H326.4a45,45,0,0,0-26.94,9c-12.25,9.22-29.82,24.64-43.91,45.66a9.88,9.88,0,0,1-8.24,4.33H181.8a9,9,0,0,0-9,9v14.6a9.06,9.06,0,0,0,9,9h64.49v35.49H181.8a9,9,0,0,0-9,9v21.2a9.06,9.06,0,0,0,9,9h64.49v35.49H181.8a9,9,0,0,0-9,9v14.6a9.06,9.06,0,0,0,9,9h65.51a9.88,9.88,0,0,1,8.24,4.33c14.09,21,31.66,36.43,43.91,45.66a45,45,0,0,0,26.94,9H599.15a44.71,44.71,0,0,0,34.37-16c35.24-42.1,36.8-127.1,36.85-130.7v-.16C670.32,247.32,668.76,162.32,633.52,120.23Zm-4.6,257.7a38.82,38.82,0,0,1-29.77,13.86H326.4A38.77,38.77,0,0,1,303.07,384c-11.21-8.44-28.68-23.53-42.54-44.21a15.89,15.89,0,0,0-13.22-7H181.8a3,3,0,0,1-3-3v-14.6a3,3,0,0,1,3-3h67.45a3,3,0,0,0,3-3V267.68a3,3,0,0,0-3-3H181.8a3,3,0,0,1-3-3V240.4a3,3,0,0,1,3-3h67.45a3,3,0,0,0,3-3v-41.4a3,3,0,0,0-3-3H181.8a3,3,0,0,1-3-3v-14.6a3,3,0,0,1,3-3h65.51a15.89,15.89,0,0,0,13.22-7c13.86-20.68,31.33-35.77,42.54-44.21a38.77,38.77,0,0,1,23.33-7.78H599.15a38.79,38.79,0,0,1,29.77,13.87C663.19,165,664.37,251,664.37,251S663.19,337,628.92,377.93Z"/><path class="cls-1" d="M503.92,385.79H326.4a33,33,0,0,1-19.72-6.58c-11.52-8.67-28-23.12-41.16-42.75a21.85,21.85,0,0,0-18.21-9.65H187.14a2.39,2.39,0,0,1-2.38-2.38v-3.92a2.38,2.38,0,0,1,2.38-2.38h59.73a11.42,11.42,0,0,0,11.42-11.42V270.06a11.42,11.42,0,0,0-11.42-11.42H187.14a2.39,2.39,0,0,1-2.38-2.38V245.74a2.38,2.38,0,0,1,2.38-2.38h59.73a11.42,11.42,0,0,0,11.42-11.42V195.3a11.46,11.46,0,0,0-11.43-11.43H187.14a2.39,2.39,0,0,1-2.38-2.38v-3.92a2.38,2.38,0,0,1,2.38-2.38h60.17a21.84,21.84,0,0,0,18.2-9.65c13.16-19.63,29.65-34.09,41.17-42.76a33,33,0,0,1,19.72-6.57H520.93a179.32,179.32,0,0,1,10.77,33.46H380.07a19.83,19.83,0,0,0-19.83,19.83v163a19.83,19.83,0,0,0,19.83,19.83H497.54A263.4,263.4,0,0,0,503.92,385.79Z"/><path class="cls-1" d="M599.15,122.21a26.72,26.72,0,0,1,20.57,9.57c12.49,14.92,22.08,39.79,27.72,71.94A341.25,341.25,0,0,1,652.37,251a341.62,341.62,0,0,1-4.94,47.3c-5.65,32.15-15.24,57-27.71,71.93a26.76,26.76,0,0,1-20.57,9.56H508.62c-1.73-7.25-3.13-14.44-4.2-21.46h38.65A25.86,25.86,0,0,0,568.9,332.5v-163a25.85,25.85,0,0,0-25.83-25.83h-6.58a182.53,182.53,0,0,0-6.67-21.46h69.33m0-6H520.93a179.32,179.32,0,0,1,10.77,33.46h11.37A19.83,19.83,0,0,1,562.9,169.5v163a19.83,19.83,0,0,1-19.83,19.83H497.54a263.4,263.4,0,0,0,6.38,33.46h95.23a32.74,32.74,0,0,0,25.17-11.71c32-38.28,34-120,34-123.08s-2-84.76-34-123.07a32.7,32.7,0,0,0-25.17-11.72Z"/><path class="cls-1" d="M509.31,280.67s-1.6,44.21-45.73,44.21-45.72-44.21-45.72-44.21c-1.05-17.44,12.17-37.44,13.82-41.19s11.64-18.35,21.71-36.71,10.19-25.65,10.19-25.65.14,7.3,10.2,25.65,20.07,33,21.71,36.71S510.36,263.23,509.31,280.67Z"/><path class="cls-2" d="M578,491.23V415.66a7.76,7.76,0,0,1,7.76-7.75H607c31.7,0,50.47-39.31,61.31-78.57a294.45,294.45,0,0,0,0-156.68C657.43,133.39,638.66,94.08,607,94.08H585.71A7.76,7.76,0,0,1,578,86.33V10.77a7.76,7.76,0,0,1,13.5-5.21L857.81,241.12a13.18,13.18,0,0,1,0,19.76L591.45,496.44A7.76,7.76,0,0,1,578,491.23Z"/><rect class="cls-1" x="81.3" y="247.52" width="84.22" height="6.96" rx="3.48"/><rect class="cls-1" x="30.12" y="247.52" width="42.11" height="6.96" rx="3.48"/><rect class="cls-1" y="247.52" width="21.06" height="6.96" rx="3.48"/><rect class="cls-1" x="98.29" y="317.92" width="67.23" height="6.96" rx="3.48"/><rect class="cls-1" x="57.44" y="317.92" width="33.62" height="6.96" rx="3.48"/><rect class="cls-1" x="33.39" y="317.92" width="16.81" height="6.96" rx="3.48"/><rect class="cls-1" x="98.29" y="177.12" width="67.23" height="6.96" rx="3.48"/><rect class="cls-1" x="57.44" y="177.12" width="33.62" height="6.96" rx="3.48"/><rect class="cls-1" x="33.39" y="177.12" width="16.81" height="6.96" rx="3.48"/></g></g></svg>