<svg xmlns="http://www.w3.org/2000/svg" viewBox="0 0 497.61 293.58"><defs><style>.cls-1{fill:#fff;}.cls-2{fill:none;stroke:#fff;stroke-linecap:round;stroke-linejoin:round;stroke-width:5px;}</style></defs><g id="Layer_2" data-name="Layer 2"><g id="Layer_1-2" data-name="Layer 1"><path class="cls-1" d="M265.43,156.46s-.58,16-16.6,16-16.61-16-16.61-16c-.38-6.33,4.42-13.6,5-15s4.23-6.66,7.88-13.33,3.71-9.32,3.71-9.32,0,2.65,3.7,9.32,7.29,12,7.88,13.33S265.81,150.13,265.43,156.46Z"/><path class="cls-1" d="M460.76,277.57c35.24-42.11,36.8-127.11,36.85-130.7v-.17C497.56,143.11,496,58.11,460.77,16A44.67,44.67,0,0,0,426.39,0H153.64A45.1,45.1,0,0,0,126.7,9c-12.25,9.23-29.82,24.64-43.91,45.66A9.87,9.87,0,0,1,74.55,59H9a9,9,0,0,0-9,9v14.6a9.07,9.07,0,0,0,9,9H69.36a4.17,4.17,0,0,1,4.17,4.17V123a4.17,4.17,0,0,1-4.17,4.17H9a9,9,0,0,0-9,9v21.19a9,9,0,0,0,9.05,9.05H69.36a4.17,4.17,0,0,1,4.17,4.17v27.15a4.17,4.17,0,0,1-4.17,4.17H9a9,9,0,0,0-9,9v14.59a9.07,9.07,0,0,0,9.05,9h65.5a9.87,9.87,0,0,1,8.24,4.32c14.09,21,31.66,36.44,43.91,45.67a45.11,45.11,0,0,0,26.94,9H426.39A44.71,44.71,0,0,0,460.76,277.57Zm-307.12,10a38.76,38.76,0,0,1-23.28-7.74c-11.21-8.43-28.71-23.54-42.59-44.25a15.89,15.89,0,0,0-13.22-7H9a3,3,0,0,1-3-3V211a3,3,0,0,1,3-3H72.32a7.21,7.21,0,0,0,7.21-7.21V167.64a7.21,7.21,0,0,0-7.21-7.21H9a3,3,0,0,1-3-3v-21.2a3,3,0,0,1,3-3H72.32a7.21,7.21,0,0,0,7.21-7.21V92.88a7.22,7.22,0,0,0-7.22-7.22H9a3,3,0,0,1-3-3V68a3,3,0,0,1,3-3H74.55a15.89,15.89,0,0,0,13.22-7c13.88-20.71,31.39-35.82,42.6-44.25A38.64,38.64,0,0,1,153.64,6H426.39a38.79,38.79,0,0,1,29.77,13.87c34.27,40.94,35.45,126.92,35.45,126.92s-1.18,86-35.45,126.93a38.82,38.82,0,0,1-29.77,13.86Z"/><path class="cls-1" d="M426.4,20a24.75,24.75,0,0,1,19,8.86c12.26,14.64,21.69,39.2,27.28,71a341,341,0,0,1,4.9,46.93,340.52,340.52,0,0,1-4.92,47c-5.59,31.8-15,56.35-27.26,71a24.74,24.74,0,0,1-19,8.85H153.65a25,25,0,0,1-14.91-5c-11-8.3-26.8-22.12-39.33-40.82a29.67,29.67,0,0,0-12.6-10.6,19.38,19.38,0,0,0,6.73-14.69V165.84a19.46,19.46,0,0,0-15.69-19.06,19.46,19.46,0,0,0,15.69-19.06V91.08a19.36,19.36,0,0,0-6.74-14.7A29.71,29.71,0,0,0,99.41,65.77C112,47.06,127.72,33.25,138.74,25a24.91,24.91,0,0,1,14.91-5H426.4m0-8H153.65a33,33,0,0,0-19.72,6.57c-11.52,8.67-28,23.13-41.17,42.76A21.84,21.84,0,0,1,74.56,71H14.39A2.38,2.38,0,0,0,12,73.35v3.92a2.39,2.39,0,0,0,2.38,2.38H74.11A11.46,11.46,0,0,1,85.54,91.08v36.64a11.42,11.42,0,0,1-11.42,11.42H14.39A2.38,2.38,0,0,0,12,141.52V152a2.39,2.39,0,0,0,2.38,2.38H74.12a11.42,11.42,0,0,1,11.42,11.42v36.65a11.42,11.42,0,0,1-11.42,11.42H14.39A2.38,2.38,0,0,0,12,216.29v3.92a2.39,2.39,0,0,0,2.38,2.38H74.56a21.85,21.85,0,0,1,18.21,9.65c13.15,19.63,29.64,34.08,41.16,42.75a33,33,0,0,0,19.72,6.58H426.4a32.74,32.74,0,0,0,25.17-11.71c32-38.28,34-120,34.05-123.08s-2-84.76-34.05-123.07A32.7,32.7,0,0,0,426.4,12Z"/><path class="cls-1" d="M248.82,112.77a34,34,0,1,1-34,34,34.05,34.05,0,0,1,34-34m0-8a42,42,0,1,0,42,42,42,42,0,0,0-42-42Z"/><polyline class="cls-2" points="248.81 92.74 248.81 43.2 377.61 43.2"/><polyline class="cls-2" points="248.81 199.8 248.81 249.34 309.19 249.34"/><polyline class="cls-2" points="306.13 146.79 409.78 146.79 409.78 229.42"/><polyline class="cls-2" points="125.87 196.31 125.87 146.78 193.99 146.78"/><circle class="cls-1" cx="398.21" cy="43.2" r="10.21"/><circle class="cls-1" cx="409.78" cy="249.33" r="10.21"/><circle class="cls-1" cx="327.74" cy="249.33" r="10.21"/><circle class="cls-1" cx="125.87" cy="217.16" r="10.21"/><circle class="cls-1" cx="337.95" cy="82.52" r="10.21"/><line class="cls-2" x1="337.95" y1="146.78" x2="337.95" y2="101.67"/><circle class="cls-1" cx="159.66" cy="82.52" r="10.21"/><line class="cls-2" x1="159.66" y1="146.78" x2="159.66" y2="101.67"/></g></g></svg>